# xmcd
#
# Track frame offsets: 
#        150
#        12176
#        25697
#        29382
#        41621
#        54027
#        68049
#        79090
#        91635
#        103205
#        113549
#        125091
#        137999
#        151715
#        164226
#
# Disc length: 2356 seconds
#
# Revision: 0
# Processed by: cddbd v1.5.1PL2 Copyright (c) Steve Scherf et al.
# Submitted via: ExactAudioCopy v0.95a5
#
DISCID=b609320f
DTITLE=Bob Wills - Bob Wills and His Texas Playboys
DYEAR=2004
DGENRE=Texas Swing
TTITLE0=Roly Poly
TTITLE1=Stay A Little Longer
TTITLE2=Texas Playboy Theme
TTITLE3=Bring It Down To My House
TTITLE4=Steel Guitar Stomp
TTITLE5=Redhead
TTITLE6=I'm Gonna Be Boss
TTITLE7=Lone Star Rag
TTITLE8=Bob Wills Special
TTITLE9=Sooner Or Later
TTITLE10=Home In San Antoine
TTITLE11=Sugar Blues
TTITLE12=Cherokee Maiden
TTITLE13=Brain Candy Blues
TTITLE14=Steel Guitar Rag
EXTD=
EXTT0=
EXTT1=
EXTT2=
EXTT3=
EXTT4=
EXTT5=
EXTT6=
EXTT7=
EXTT8=
EXTT9=
EXTT10=
EXTT11=
EXTT12=
EXTT13=
EXTT14=
PLAYORDER=
